<svg width="208" height="46" viewBox="0 0 208 46" fill="none" xmlns="http://www.w3.org/2000/svg">
<path d="M5.39591 45.481C4.76546 45.481 4.17209 45.4068 3.61581 45.277C3.05954 45.1472 2.59597 44.9247 2.18803 44.6281C1.78009 44.3314 1.48341 43.9606 1.2609 43.4785C1.03839 43.015 0.927132 42.4588 0.927132 41.7913C0.927132 40.9013 1.1311 39.9001 1.55758 38.7877C1.98406 37.6752 2.54034 36.4701 3.24496 35.2093C3.94958 33.9485 4.74691 32.6321 5.63696 31.2971C6.52701 29.9622 7.45414 28.6272 8.38127 27.3108C9.3084 25.9944 10.217 24.7151 11.1256 23.4543C12.0156 22.2121 12.813 21.0625 13.5176 20.0242C14.2222 18.9859 14.7785 18.0403 15.205 17.2431C15.6314 16.4273 15.8354 15.7969 15.8354 15.3334C15.8354 14.8884 15.65 14.6659 15.2606 14.6659C14.7785 14.6659 14.2037 14.8884 13.5547 15.3148C12.9057 15.7413 12.1825 16.3531 11.4223 17.1133C10.6435 17.8735 9.8276 18.7634 8.95609 19.8017C8.08459 20.84 7.19454 21.9525 6.28595 23.1391C5.37736 24.3257 4.45023 25.5865 3.50456 26.8844C2.55888 28.1822 1.6503 29.4801 0.760249 30.7594L0 30.1661C2.07678 27.2552 3.94958 24.6965 5.61842 22.4902C7.3058 20.3023 8.86338 18.4482 10.3282 16.965C11.7931 15.4817 13.1653 14.3507 14.4818 13.6091C15.7983 12.8674 17.1149 12.4781 18.4499 12.4781C19.2287 12.4781 19.7665 12.7006 20.0631 13.1641C20.3598 13.6276 20.5082 14.1467 20.5082 14.7401C20.5082 15.7598 20.2115 16.9279 19.6181 18.2443C19.0247 19.5607 18.2089 21.1181 17.1705 22.8981C16.1321 24.678 14.9083 26.7361 13.499 29.0537C12.0898 31.3713 10.5693 34.0412 8.91901 37.0634C8.49253 37.8235 8.15876 38.5466 7.91771 39.2327C7.67665 39.9187 7.54685 40.6047 7.54685 41.3092C7.54685 41.9026 7.67665 42.3105 7.91771 42.5515C8.15876 42.7925 8.4369 42.9038 8.73358 42.9038C9.16006 42.9038 9.62363 42.774 10.1057 42.5144C10.6064 42.2548 11.0885 41.7913 11.5706 41.1238L19.4883 30.1661C19.7294 29.8509 19.9704 29.4987 20.2486 29.1278C20.5267 28.7385 20.7678 28.4047 21.0088 28.0895C21.2869 27.7002 21.5651 27.3479 21.8247 26.9771L22.5293 27.4592C22.2512 27.8856 21.973 28.2935 21.7134 28.7014C21.4724 29.0537 21.2128 29.443 20.8976 29.8695C20.5823 30.2959 20.2856 30.7224 19.989 31.1303L12.2567 41.9582C11.5521 42.9594 10.6435 43.7937 9.49383 44.4797C8.34419 45.1472 6.97203 45.481 5.39591 45.481ZM20.675 6.341C20.675 6.04435 20.8048 5.54374 21.0459 4.85773C21.2869 4.15317 21.6763 3.44862 22.1955 2.72552C22.7147 2.00242 23.4008 1.35349 24.2352 0.815802C25.0696 0.259574 26.0895 0 27.2948 0C27.7398 0 28.1663 0.148328 28.5557 0.463524C28.9636 0.77872 29.149 1.27933 29.149 2.00242C29.149 2.57719 28.9821 3.18904 28.6669 3.81944C28.3517 4.46837 27.8881 5.04314 27.2948 5.58083C26.7014 6.09997 25.9597 6.54496 25.0696 6.89723C24.1981 7.24951 23.1968 7.41638 22.1028 7.41638C21.7505 7.41638 21.4167 7.34222 21.1015 7.21243C20.8234 7.04556 20.675 6.76745 20.675 6.341Z" fill="#1B1AFE"/>
<path d="M42.7029 45.4062C42.0724 45.4062 41.4791 45.332 40.9228 45.2022C40.3665 45.0725 39.9029 44.85 39.495 44.5533C39.0871 44.2567 38.7904 43.8858 38.5679 43.4038C38.3453 42.9402 38.2341 42.384 38.2341 41.7165C38.2341 40.8266 38.4195 39.8439 38.7904 38.7685C39.1612 37.6932 39.6433 36.5622 40.2552 35.3755C40.8671 34.1889 41.5718 32.9838 42.3506 31.723C43.1293 30.4807 43.9267 29.2385 44.7426 28.0333C45.5584 26.8096 46.3558 25.6415 47.1346 24.492C47.9134 23.3425 48.618 22.3042 49.2299 21.3215C49.8418 20.3574 50.3424 19.4859 50.6947 18.7258C51.0656 17.9656 51.251 17.3537 51.251 16.8902C51.251 16.7233 51.2139 16.5565 51.1398 16.4082C51.0656 16.2413 50.9173 16.1671 50.6762 16.1671C50.2683 16.1671 49.6193 16.4823 48.7292 17.0942C47.8392 17.7246 46.7637 18.5774 45.5399 19.6899C44.3161 20.8024 42.9625 22.1188 41.4605 23.6391C39.9771 25.1595 38.4381 26.8096 36.8434 28.6081C35.2673 30.4066 33.6726 32.2977 32.0779 34.3187C30.4833 36.3211 28.9628 38.3606 27.535 40.4001C27.2383 40.8266 26.9045 41.2345 26.5337 41.6424C26.1628 42.0503 25.7178 42.4211 25.1986 42.7919C24.6794 43.1627 24.0861 43.515 23.4 43.8302C22.7139 44.164 21.9166 44.4421 21.008 44.7016C20.4332 44.8685 19.9696 44.9983 19.5802 45.091C19.1908 45.1837 18.8756 45.2393 18.6345 45.2764C18.3749 45.3135 18.171 45.3506 17.9855 45.3506C17.8001 45.3691 17.6332 45.3691 17.4663 45.3691C17.0028 45.3691 16.7617 45.1837 16.7617 44.7943C16.7617 44.6275 16.7988 44.4235 16.8915 44.201C16.9842 43.96 17.1697 43.6077 17.4478 43.1071C17.7259 42.6065 18.1524 41.939 18.6902 41.0862C19.2279 40.2333 19.9511 39.1023 20.8596 37.6746C21.8609 36.1543 22.7695 34.7637 23.6225 33.4844C24.4755 32.2236 25.347 30.9072 26.237 29.5351C27.1271 28.1817 28.1098 26.6984 29.1482 25.1224C30.1866 23.5464 31.4289 21.6738 32.8382 19.523C33.2461 18.9112 33.5799 18.3735 33.8766 17.9471C34.1733 17.5021 34.4143 17.1127 34.6183 16.7975C34.8223 16.4638 34.9706 16.1857 35.0633 15.9446C35.156 15.7036 35.2116 15.4626 35.2116 15.2401C35.2116 14.7951 35.0262 14.5726 34.6368 14.5726C34.1547 14.5726 33.5799 14.7951 32.9309 15.2215C32.2819 15.648 31.5587 16.2598 30.7985 17.02C30.0197 17.7802 29.2038 18.6701 28.3323 19.7084C27.4608 20.7467 26.5708 21.8592 25.6622 23.0458C24.7536 24.2324 23.8265 25.4932 22.8808 26.7911C21.9351 28.0889 21.0265 29.3868 20.1365 30.6661L19.3762 30.0728C21.453 27.1619 23.3258 24.6033 24.9946 22.3969C26.682 20.209 28.2396 18.355 29.7045 16.8717C31.1694 15.3884 32.5415 14.2574 33.858 13.5158C35.1746 12.7741 36.4911 12.3848 37.8262 12.3848C38.6235 12.3848 39.1983 12.5702 39.5321 12.9595C39.8658 13.3489 40.0327 13.831 40.0327 14.4243C40.0327 15.0176 39.8288 15.8519 39.4208 16.9644C39.0129 18.0583 38.4751 19.2635 37.8447 20.5799C37.1957 21.8963 36.4911 23.2498 35.7308 24.6774C34.9706 26.1051 34.2289 27.44 33.5057 28.6823C32.7826 29.9245 32.1521 31.037 31.5773 32.0011C31.0025 32.9652 30.6131 33.6512 30.372 34.0591L30.5574 34.2816C33.8024 30.1285 36.7878 26.6428 39.495 23.8431C42.2022 21.0434 44.6128 18.7999 46.7452 17.1127C48.8776 15.4255 50.6762 14.2203 52.1967 13.5158C53.6987 12.8112 54.9039 12.4589 55.7569 12.4589C56.4059 12.4589 56.9065 12.6258 57.2588 12.941C57.6111 13.2747 57.778 13.831 57.778 14.6282C57.778 15.648 57.4813 16.8161 56.888 18.1325C56.2946 19.4489 55.4787 21.0063 54.4404 22.7862C53.402 24.5662 52.1782 26.6242 50.7689 28.9418C49.3597 31.2594 47.8392 33.9293 46.1889 36.9515C45.7624 37.7117 45.4286 38.4348 45.1876 39.1208C44.9465 39.8068 44.8167 40.4928 44.8167 41.1974C44.8167 41.7907 44.928 42.1986 45.132 42.4396C45.3359 42.6807 45.6326 42.7919 45.9849 42.7919C46.4485 42.7919 46.912 42.6621 47.3942 42.4026C47.8763 42.143 48.3584 41.6795 48.8405 41.012L56.7582 30.0543C56.9992 29.7391 57.2403 29.3868 57.5184 29.016C57.7966 28.6266 58.1118 28.2002 58.2787 27.885C58.5012 27.4771 59.0204 26.068 59.0389 25.6601L60.6521 26.7169C60.374 27.1434 59.2614 28.1817 58.9833 28.5896C58.7423 28.9418 58.4827 29.3312 58.1674 29.7576C57.8522 30.1841 57.5555 30.6105 57.2588 31.0184L49.5636 41.8649C48.859 42.8661 47.9504 43.7004 46.7822 44.3864C45.6326 45.0725 44.279 45.4062 42.7029 45.4062Z" fill="#1B1AFE"/>
<path d="M75.5614 45.3502C70.7774 45.3502 66.8093 43.7371 63.6199 40.5295C60.4306 37.322 58.8359 33.3542 58.8359 28.6077C58.8359 23.8798 60.4306 19.912 63.6199 16.6859C66.8093 13.4783 70.7959 11.8652 75.5614 11.8652C78.6395 11.8652 81.458 12.6069 83.9983 14.0901C86.5386 15.5734 88.4485 17.5573 89.7651 20.0418L82.7374 24.1579C82.107 22.8415 81.1427 21.8217 79.8447 21.0615C78.5468 20.3014 77.1004 19.912 75.5058 19.912C73.0581 19.912 71.0185 20.7278 69.4238 22.3594C67.8106 23.991 67.0132 26.0676 67.0132 28.6077C67.0132 31.0922 67.8106 33.1688 69.4238 34.7819C71.037 36.4135 73.0581 37.2293 75.5058 37.2293C77.1561 37.2293 78.6209 36.8584 79.9189 36.1168C81.1984 35.3752 82.1626 34.3554 82.8116 33.039L89.9134 37.0995C88.5227 39.6025 86.5572 41.5864 84.0168 43.0882C81.458 44.6086 78.658 45.3502 75.5614 45.3502Z" fill="black"/>
<path d="M113.464 12.7734H121.641V44.4599H113.464V40.9186C111.48 43.8851 108.327 45.3499 104.025 45.3499C100.558 45.3499 97.7024 44.1818 95.4402 41.8642C93.178 39.5466 92.0469 36.339 92.0469 32.2229V12.7734H100.224V31.2217C100.224 33.3354 100.799 34.9484 101.93 36.0609C103.08 37.1733 104.6 37.7481 106.492 37.7481C108.605 37.7481 110.293 37.0992 111.554 35.7828C112.815 34.4664 113.464 32.501 113.464 29.8867V12.7734Z" fill="black"/>
<path d="M143.723 11.9034C147.988 11.9034 151.641 13.5164 154.664 16.7426C157.686 19.9687 159.188 23.9365 159.188 28.6273C159.188 33.3182 157.667 37.2859 154.664 40.5121C151.641 43.7382 148.007 45.3513 143.723 45.3513C139.292 45.3513 135.861 43.8124 133.451 40.716V44.4613H125.273V0.111328H133.451V16.5201C135.861 13.4423 139.273 11.9034 143.723 11.9034ZM135.917 35.061C137.567 36.7297 139.663 37.5641 142.184 37.5641C144.706 37.5641 146.82 36.7297 148.489 35.061C150.158 33.3923 150.992 31.2416 150.992 28.6273C150.992 26.013 150.158 23.8623 148.489 22.1936C146.82 20.5249 144.725 19.6906 142.184 19.6906C139.644 19.6906 137.549 20.5249 135.917 22.1936C134.267 23.8623 133.451 26.013 133.451 28.6273C133.451 31.2416 134.267 33.3923 135.917 35.061Z" fill="black"/>
<path d="M161.859 44.4599V12.7734H170.037V44.4599H161.859Z" fill="black"/>
<path d="M199.074 12.7738H207.251V44.4603H199.074V40.715C196.626 43.7928 193.178 45.3502 188.746 45.3502C184.518 45.3502 180.902 43.7372 177.88 40.511C174.857 37.2849 173.355 33.3171 173.355 28.6263C173.355 23.9354 174.857 19.9677 177.88 16.7415C180.902 13.5154 184.518 11.9023 188.746 11.9023C193.178 11.9023 196.626 13.4412 199.074 16.5376V12.7738ZM183.999 35.06C185.649 36.7287 187.745 37.563 190.266 37.563C192.807 37.563 194.902 36.7287 196.571 35.06C198.24 33.3913 199.074 31.2406 199.074 28.6263C199.074 26.012 198.24 23.8613 196.571 22.1926C194.902 20.5239 192.807 19.6895 190.266 19.6895C187.726 19.6895 185.649 20.5239 183.999 22.1926C182.349 23.8613 181.533 26.012 181.533 28.6263C181.533 31.2406 182.349 33.3913 183.999 35.06Z" fill="black"/>
<path d="M161.691 6.93476C161.691 6.6381 161.821 6.1375 162.062 5.45148C162.303 4.74692 162.693 4.04237 163.212 3.31927C163.731 2.59617 164.417 1.94724 165.252 1.40955C166.086 0.853324 167.106 0.59375 168.311 0.59375C168.756 0.59375 169.183 0.742078 169.572 1.05727C169.98 1.37247 170.165 1.87307 170.165 2.59617C170.165 3.17094 169.999 3.78279 169.683 4.41319C169.368 5.06212 168.904 5.63689 168.311 6.17458C167.718 6.69372 166.976 7.13871 166.086 7.49098C165.214 7.84326 164.213 8.01013 163.119 8.01013C162.767 8.01013 162.433 7.93597 162.118 7.80618C161.84 7.63931 161.691 7.3612 161.691 6.93476Z" fill="black"/>
</svg>
